<?xml version="1.0" encoding="UTF-8"?><svg id="Capa_1" xmlns="http://www.w3.org/2000/svg" viewBox="0 0 892.11 876.1"><g id="_5af65a61-89be-48e9-a11f-1b1c4213db3f"><path fill="#fff" d="M892.11,612.93l-154.91,1.38c-19.97,11.94-13.56,41.35-5.93,59.22,2.69,6.3,15.13,21.56,13.8,26.21-.95,3.34-14.82,19.51-18.23,23.46-6.08,7.05-36.44,40.67-41.83,43.08-16.47,7.35-28.1-9.45-42.76-16.33-73.53-34.51-144.33,9.92-159.73,84.85-1.49,7.25,0,14.41-3.2,22.1-6.48,15.58-17.13,17.19-32.43,18.15-18.11,1.14-49.26,1.69-66.94-.07-11.56-1.15-15.35-4.9-18.46-15.88-3.06-10.8-2.6-22.17-4.92-33.01-13.65-63.75-85.9-101.29-146.51-81.33-13.2,4.35-42.24,25.15-53.65,23.27-9.74-1.61-13.48-11.2-19.39-16.91-9.52-9.18-47.17-43.66-49.41-53.61-2-8.89,16.8-35.8,21.3-46.7,24.57-59.48-3.96-131.6-62.86-157.47-13.1-5.76-28.67-7.19-40.17-12.23-2.55-1.11-4.96-1.96-5.87-4.97l.52-98.17c12.22-7.09,27.16-5.33,40.63-9.95,33.13-11.36,61.58-39.33,74.99-71.37,1.68-4.01,7.67-19.32,8.11-21.12.8-3.32,2.03-15.76,2.02-19.51-.02-8.14-7.73-32.74-11.23-41.34-4.94-12.13-30.09-41.6-28.4-50.4,1.3-6.74,22.97-25.56,28.7-31.09,4.9-4.72,8.71-7.19,12.66-10.79,7.04-6.43,21.52-25.02,29.86-26.26,13.25-1.96,24.27,13.21,36.53,19.28,24.89,12.34,66.61,13.22,92.48,3.2,44.43-17.2,65.64-46.91,75.41-92.63,1.83-8.59-1.23-20.72,10.82-23.51,20.73-4.8,42.26-.72,62.85-.38,9.44.15,32.43-6.08,40.18,2.27,4.01,4.32,9.26,40.72,13.23,50.57,1.76,4.36,13.79,25.62,17.17,30.18,30.55,41.23,95.53,51.19,140.54,30.57,10.66-4.89,31.31-23.04,42.24-18.27l64.68,63.63c2.04,2.34,3.65,5.64,4.09,8.69,2.14,14.86-21.45,40.77-27.1,57-21.19,60.94,14.16,124.26,74.5,143.04,9.18,2.85,38.21,5.22,42.33,10.06,5.46,6.4.53,14.25.79,20.75.53,13.98.47,22.2,0,36.13-.36,10.35,7.53,24.22-9.74,26.24-59,6.88-131.2-5.15-191.6-.1-59.97.81-120.42,1.54-180.51,1.96-19.31.13-55.61,3.34-71.27-6.56-22.84-14.45-25.42-60.89,1.2-72.56,1.86-.81,12.86-4.07,13.99-4.07h97.56c.48,0,1.1,1.6,1.81,1.57l2.43-3.95c-16.04-47.9-72.27-75.18-120.21-57.6-96.81,35.5-105.6,184.19-4.64,222.18,29.39,11.06,78.84,6.99,106.47-8.28,17.56-9.72,23.42-33.14,44.55-18.08,15.15,10.79,5.4,24.16-2.74,36.41-40.71,61.25-142.37,82.99-207.5,51.02-163.47-80.25-124.52-329.78,52.42-368.78,87.7-19.34,185.49,26.86,219.5,111.24,2.22,5.5,9.45,34.29,12.69,34.29h60.52c-7.85-97.63-80.12-168.66-170.25-197.44-140.74-44.95-288.99,39.94-325.65,181.18-51.74,199.34,134.91,388.69,332.18,296.14,31.06-14.57,75.62-58.71,92.39-88.3,4.79-8.45,15.37-39.27,22.03-41.22l267.9-.37v81.32h0Z"/></g></svg>
